<svg xmlns="http://www.w3.org/2000/svg" xml:space="preserve" id="Ebene_1" x="0" y="0" style="enable-background:new 0 0 256 256" version="1.1" viewBox="0 0 256 256"><style>.st1{fill:#fff}.st3{fill:#8a3d67}.st4{opacity:.2;fill:#fff}.st5{fill:#ffaede}</style><path d="M250.4 644.9h256v256h-256z" style="fill:#273589"/><path d="M360.2 713.7v62.2c0 4.5 3.7 8.2 8.2 8.2h62.2c4.5 0 8.2-3.7 8.2-8.2v-62.2c0-4.5-3.7-8.2-8.2-8.2h-62.2c-4.6 0-8.2 3.7-8.2 8.2zm57.6 45.9-18.4-18.3-18.4 18.3-5.6-5.6 24-24 24 24-5.6 5.6z" class="st1"/><path d="M433.9 705.5h-69c-2.6 0-4.8 2.1-4.8 4.8v10.2h78.6v-10.2c0-2.6-2.1-4.8-4.8-4.8z" class="st1"/><path d="M290.2 684.7v35.8h63.9v-10.2c0-5.9 4.8-10.8 10.8-10.8h69c5.9 0 10.8 4.8 10.8 10.8v10.2h21.8v-35.8H290.2z" class="st1"/><g style="opacity:.4"><path d="M451.5 835.2V846h-10.8v15h25.8v-25.8zM305.3 846v-10.8h-15.1V861H316v-15zM403.1 846h25.8v15.1h-25.8zM365.5 846h25.8v15.1h-25.8zM327.9 846h25.8v15.1h-25.8zM290.2 797.6h15.1v25.8h-15.1zM290.2 760h15.1v25.8h-15.1zM290.2 720.5h15.1v27.6h-15.1zM451.5 720.5h15.1v27.6h-15.1zM451.5 760h15.1v25.8h-15.1zM451.5 797.6h15.1v25.8h-15.1z" class="st1"/></g><path d="M0 0h256v256H0z" class="st3"/><path d="M46.6 138.2h162.8v20.4H46.6zM46.6 178.9h162.8v20.4H46.6zM46.6 97.5h162.8v20.4H46.6z" class="st4"/><path d="M46.6 56.8h162.8v20.4H46.6zM132.3 90.6H83c-3.7 0-6.6 3-6.6 6.6v49.3c0 3.7 3 6.6 6.6 6.6h49.3c3.7 0 6.6-3 6.6-6.6V97.2c0-3.6-3-6.6-6.6-6.6zm-18.5 45.2h-5v-12.3H96.5v12.3h-5V108h5v11.2h12.2V108h5v27.8zm16.4 0h-11.8V133l4.3-4.2c.9-.9 1.6-1.6 2-2.1.5-.6.8-1.1 1-1.5.2-.4.3-.9.3-1.4 0-.6-.2-1.1-.5-1.4-.4-.3-.9-.5-1.5-.5-1.1 0-2.4.6-3.7 1.7l-2-2.5c.8-.7 1.7-1.2 2.7-1.7 1-.4 2.1-.7 3.4-.7 1.7 0 3 .4 4 1.2 1 .8 1.5 2 1.5 3.5 0 1.2-.4 2.3-1.1 3.3-.7 1-1.8 2.1-3.3 3.5l-2.5 2.3h7.1v3.3zM66.2 203.5l-2.8-2.6c-10.1-9.1-16.8-15.1-16.8-22.6 0-6 4.7-10.8 10.8-10.8 3.4 0 6.7 3.4 8.8 6 2.1-2.4 5.4-6 8.8-6 6 0 10.8 4.7 10.8 10.8 0 7.5-6.7 13.4-16.8 22.6l-2.8 2.6zM138.9 111.1v35.4z" class="st1"/><path d="M194.8 104.5h-49.9v42c0 4.5-2.4 8.5-6 10.7v3.2c0 3.7 3 6.6 6.6 6.6h49.3c3.7 0 6.6-3 6.6-6.6v-49.3c.1-3.6-2.9-6.6-6.6-6.6zm-18.5 45.2h-5v-12.3h-12.2v12.3h-5v-27.8h5v11.2h12.2v-11.2h5v27.8zm14.9-1.4c-1.1.9-2.8 1.4-5.2 1.4-1.9 0-3.6-.4-5.2-1.2v-3.2c.9.5 1.7.8 2.6 1.1.9.3 1.7.4 2.6.4 2.1 0 3.2-.8 3.2-2.4 0-.7-.3-1.2-.8-1.7-.6-.4-1.5-.6-2.7-.6h-2.2v-2.7h1.9c1.3 0 2.2-.2 2.7-.7.5-.5.7-1 .7-1.6 0-.6-.2-1.1-.6-1.4-.4-.3-.9-.5-1.6-.5s-1.3.1-1.9.4c-.6.2-1.2.6-2 1.1l-1.7-2.4c.8-.6 1.6-1 2.6-1.4.9-.4 2-.6 3.3-.6 1.7 0 3 .4 4 1.2 1 .8 1.5 1.9 1.5 3.2 0 1.9-1 3.2-3.1 3.9v.2c1.2.2 2.1.7 2.7 1.4.6.7.9 1.5.9 2.5-.1 1.5-.6 2.7-1.7 3.6z" class="st5"/><path d="M145.6 173.1c-4 0-7.5-1.8-9.8-4.7v23.2h-5v-12.3h-12.2v12.3h-5v-27.8h5V175h12.2v-11.2h2.6c-.3-1.1-.5-2.2-.5-3.3v-1.3h-34v43.1c0 3.7 3 6.6 6.6 6.6h49.3c3.7 0 6.6-3 6.6-6.6v-29.2h-15.8zm7.7 15.3H151v3.2h-3.9v-3.2h-7.4v-2.6l7.4-11h3.9v10.7h2.4v2.9z" class="st5"/><path d="M138.9 111.1v35.4zM176.3 149.7h-5v-12.3h-12.2v12.3h-5v-27.8h5v11.2h12.2v-11.2h5v27.8zm14.9-1.4c-1.1.9-2.8 1.4-5.2 1.4-1.9 0-3.6-.4-5.2-1.2v-3.2c.9.5 1.7.8 2.6 1.1.9.3 1.7.4 2.6.4 2.1 0 3.2-.8 3.2-2.4 0-.7-.3-1.2-.8-1.7-.6-.4-1.5-.6-2.7-.6h-2.2v-2.7h1.9c1.3 0 2.2-.2 2.7-.7.5-.5.7-1 .7-1.6 0-.6-.2-1.1-.6-1.4-.4-.3-.9-.5-1.6-.5s-1.3.1-1.9.4c-.6.2-1.2.6-2 1.1l-1.7-2.4c.8-.6 1.6-1 2.6-1.4.9-.4 2-.6 3.3-.6 1.7 0 3 .4 4 1.2 1 .8 1.5 1.9 1.5 3.2 0 1.9-1 3.2-3.1 3.9v.2c1.2.2 2.1.7 2.7 1.4.6.7.9 1.5.9 2.5-.1 1.5-.6 2.7-1.7 3.6zM145.6 181.5l-2.7 4h4.2v-5.1c0-.6.1-1.3.1-1.9-.1.3-.4.8-.7 1.5-.4.6-.7 1.1-.9 1.5z" class="st3"/><path d="M135.7 168.4v23.2h-5v-12.3h-12.2v12.3h-5v-27.8h5V175h12.2v-11.2h2.6l2.4 4.6zm17.6 20H151v3.2h-3.9v-3.2h-7.4v-2.6l7.4-11h3.9v10.7h2.4v2.9z" class="st3"/><path d="m145.6 181.5-2.7 4h4.2v-5.1c0-.6.1-1.3.1-1.9-.1.3-.4.8-.7 1.5-.4.6-.7 1.1-.9 1.5z" class="st5"/></svg>
